<svg width="20" height="21" viewBox="0 0 20 21" fill="none" xmlns="http://www.w3.org/2000/svg">
<path d="M17.5 6.33366V14.667C17.5 17.167 16.25 18.8337 13.3333 18.8337H6.66667C3.75 18.8337 2.5 17.167 2.5 14.667V6.33366C2.5 3.83366 3.75 2.16699 6.66667 2.16699H13.3333C16.25 2.16699 17.5 3.83366 17.5 6.33366Z" stroke="currentColor" stroke-width="1.5" stroke-miterlimit="10" stroke-linecap="round" stroke-linejoin="round"/>
<path d="M12.9173 2.16699V8.71698C12.9173 9.08365 12.484 9.26698 12.2173 9.02531L10.284 7.24201C10.1257 7.09201 9.87563 7.09201 9.7173 7.24201L7.78401 9.02531C7.51734 9.26698 7.08398 9.08365 7.08398 8.71698V2.16699H12.9173Z" stroke="currentColor" stroke-width="1.5" stroke-miterlimit="10" stroke-linecap="round" stroke-linejoin="round"/>
<path d="M11.041 12.167H14.5827" stroke="currentColor" stroke-width="1.5" stroke-miterlimit="10" stroke-linecap="round" stroke-linejoin="round"/>
<path d="M7.5 15.5H14.5833" stroke="currentColor" stroke-width="1.5" stroke-miterlimit="10" stroke-linecap="round" stroke-linejoin="round"/>
</svg>
