<svg width="20" height="20" viewBox="0 0 20 20" fill="none" xmlns="http://www.w3.org/2000/svg">
<path d="M2.6416 6.2002L9.99992 10.4585L17.3082 6.22517" stroke="currentColor" stroke-width="1.5" stroke-linecap="round" stroke-linejoin="round"/>
<path d="M10 18.0085V10.4502" stroke="currentColor" stroke-width="1.5" stroke-linecap="round" stroke-linejoin="round"/>
<path d="M8.27453 2.06699L3.82453 4.54202C2.8162 5.10035 1.99121 6.50034 1.99121 7.65034V12.3587C1.99121 13.5087 2.8162 14.9087 3.82453 15.467L8.27453 17.942C9.22453 18.467 10.7829 18.467 11.7329 17.942L16.1829 15.467C17.1912 14.9087 18.0162 13.5087 18.0162 12.3587V7.65034C18.0162 6.50034 17.1912 5.10035 16.1829 4.54202L11.7329 2.06699C10.7745 1.53366 9.22453 1.53366 8.27453 2.06699Z" stroke="currentColor" stroke-width="1.5" stroke-linecap="round" stroke-linejoin="round"/>
<path d="M14.1661 11.0337V7.98369L6.25781 3.41699" stroke="currentColor" stroke-width="1.5" stroke-linecap="round" stroke-linejoin="round"/>
</svg>
