<svg width="40" height="40" viewBox="0 0 40 40" fill="none" xmlns="http://www.w3.org/2000/svg">
<path d="M11.2668 36.6668H28.7335C33.3335 36.6668 35.1668 33.8502 35.3835 30.4168L36.2501 16.6502C36.4835 13.0502 33.6168 10.0002 30.0001 10.0002C28.9835 10.0002 28.0501 9.41683 27.5835 8.51683L26.3835 6.10016C25.6168 4.5835 23.6168 3.3335 21.9168 3.3335H18.1001C16.3835 3.3335 14.3835 4.5835 13.6168 6.10016L12.4168 8.51683C11.9501 9.41683 11.0168 10.0002 10.0001 10.0002C6.38345 10.0002 3.51678 13.0502 3.75012 16.6502L4.61678 30.4168C4.81678 33.8502 6.66678 36.6668 11.2668 36.6668Z" stroke="currentColor" stroke-width="2" stroke-linecap="round" stroke-linejoin="round"/>
<path d="M17.5 13.3335H22.5" stroke="currentColor" stroke-width="2" stroke-linecap="round" stroke-linejoin="round"/>
<path d="M19.9999 29.9998C22.9833 29.9998 25.4166 27.5665 25.4166 24.5832C25.4166 21.5998 22.9833 19.1665 19.9999 19.1665C17.0166 19.1665 14.5833 21.5998 14.5833 24.5832C14.5833 27.5665 17.0166 29.9998 19.9999 29.9998Z" stroke="currentColor" stroke-width="2" stroke-linecap="round" stroke-linejoin="round"/>
</svg>
