<svg width="24" height="25" viewBox="0 0 24 25" fill="none" xmlns="http://www.w3.org/2000/svg">
<path d="M17 10.5H19C21 10.5 22 9.5 22 7.5V5.5C22 3.5 21 2.5 19 2.5H17C15 2.5 14 3.5 14 5.5V7.5C14 9.5 15 10.5 17 10.5Z" stroke="#0A0A0A" stroke-width="2" stroke-miterlimit="10" stroke-linecap="round" stroke-linejoin="round"/>
<path d="M5 22.5H7C9 22.5 10 21.5 10 19.5V17.5C10 15.5 9 14.5 7 14.5H5C3 14.5 2 15.5 2 17.5V19.5C2 21.5 3 22.5 5 22.5Z" stroke="#0A0A0A" stroke-width="2" stroke-miterlimit="10" stroke-linecap="round" stroke-linejoin="round"/>
<path d="M6 10.5C8.20914 10.5 10 8.70914 10 6.5C10 4.29086 8.20914 2.5 6 2.5C3.79086 2.5 2 4.29086 2 6.5C2 8.70914 3.79086 10.5 6 10.5Z" stroke="#0A0A0A" stroke-width="2" stroke-miterlimit="10" stroke-linecap="round" stroke-linejoin="round"/>
<path d="M18 22.5C20.2091 22.5 22 20.7091 22 18.5C22 16.2909 20.2091 14.5 18 14.5C15.7909 14.5 14 16.2909 14 18.5C14 20.7091 15.7909 22.5 18 22.5Z" stroke="#0A0A0A" stroke-width="2" stroke-miterlimit="10" stroke-linecap="round" stroke-linejoin="round"/>
</svg>
