<svg width="47" height="46" viewBox="0 0 47 46" fill="none" xmlns="http://www.w3.org/2000/svg">
<path d="M29.2505 4.59961V11.4996C29.2505 12.7699 30.2803 13.7996 31.5505 13.7996H38.4505M16.6005 13.7996H21.2005M16.6005 20.6996H30.4005M16.6005 27.5996H30.4005M35.0005 8.04961C33.9769 7.13371 32.9146 6.04742 32.2441 5.34189C31.7978 4.87242 31.1813 4.59961 30.5336 4.59961H13.15C10.6095 4.59961 8.55 6.65909 8.54998 9.19958L8.5498 36.7995C8.54979 39.34 10.6093 41.3995 13.1498 41.3995L33.8499 41.3996C36.3903 41.3996 38.4498 39.3402 38.4499 36.7997L38.4505 12.4155C38.4505 11.8273 38.2262 11.262 37.818 10.8386C37.0632 10.0557 35.8028 8.76743 35.0005 8.04961Z" stroke="currentColor" stroke-width="3" stroke-linecap="round" stroke-linejoin="round"/>
</svg>
