<svg width="18" height="19" viewBox="0 0 18 19" fill="none" xmlns="http://www.w3.org/2000/svg">
<path d="M4.05078 2.0752H13.9508C14.7758 2.0752 15.4508 2.7502 15.4508 3.5752V5.2252C15.4508 5.8252 15.0758 6.5752 14.7008 6.9502L11.4758 9.80019C11.0258 10.1752 10.7258 10.9252 10.7258 11.5252V14.7502C10.7258 15.2002 10.4258 15.8002 10.0508 16.0252L9.00078 16.7002C8.02578 17.3002 6.67578 16.6252 6.67578 15.4252V11.4502C6.67578 10.9252 6.37578 10.2502 6.07578 9.8752L3.22578 6.8752C2.85078 6.5002 2.55078 5.8252 2.55078 5.3752V3.6502C2.55078 2.7502 3.22578 2.0752 4.05078 2.0752Z" stroke="currentColor" stroke-width="1.5" stroke-miterlimit="10" stroke-linecap="round" stroke-linejoin="round"/>
<path d="M8.1975 2.0752L4.5 8.0002" stroke="currentColor" stroke-width="1.5" stroke-miterlimit="10" stroke-linecap="round" stroke-linejoin="round"/>
</svg>
