<svg width="26" height="26" viewBox="0 0 26 26" fill="none" xmlns="http://www.w3.org/2000/svg">
<path d="M9.75008 23.8337H16.2501C21.6667 23.8337 23.8334 21.667 23.8334 16.2503V9.75033C23.8334 4.33366 21.6667 2.16699 16.2501 2.16699H9.75008C4.33341 2.16699 2.16675 4.33366 2.16675 9.75033V16.2503C2.16675 21.667 4.33341 23.8337 9.75008 23.8337Z" stroke="#F2B430" stroke-width="2" stroke-linecap="round" stroke-linejoin="round"/>
<path d="M9.74992 10.8333C10.9465 10.8333 11.9166 9.86328 11.9166 8.66667C11.9166 7.47005 10.9465 6.5 9.74992 6.5C8.5533 6.5 7.58325 7.47005 7.58325 8.66667C7.58325 9.86328 8.5533 10.8333 9.74992 10.8333Z" stroke="#F2B430" stroke-width="2" stroke-linecap="round" stroke-linejoin="round"/>
<path d="M2.89258 20.5289L8.23341 16.9431C9.08924 16.3689 10.3242 16.4339 11.0934 17.0948L11.4509 17.4089C12.2959 18.1348 13.6609 18.1348 14.5059 17.4089L19.0126 13.5414C19.8576 12.8156 21.2226 12.8156 22.0676 13.5414L23.8334 15.0581" stroke="#F2B430" stroke-width="2" stroke-linecap="round" stroke-linejoin="round"/>
</svg>
