<svg width="20" height="21" viewBox="0 0 20 21" fill="none" xmlns="http://www.w3.org/2000/svg">
<path d="M9.99935 18.8337C14.6017 18.8337 18.3327 15.1027 18.3327 10.5003C18.3327 5.89795 14.6017 2.16699 9.99935 2.16699C5.39698 2.16699 1.66602 5.89795 1.66602 10.5003C1.66602 15.1027 5.39698 18.8337 9.99935 18.8337Z" stroke="currentColor" stroke-width="1.5" stroke-linecap="round" stroke-linejoin="round"/>
<path d="M6.66667 3H7.5C5.875 7.86667 5.875 13.1333 7.5 18H6.66667" stroke="currentColor" stroke-width="1.5" stroke-linecap="round" stroke-linejoin="round"/>
<path d="M12.5 3C14.125 7.86667 14.125 13.1333 12.5 18" stroke="currentColor" stroke-width="1.5" stroke-linecap="round" stroke-linejoin="round"/>
<path d="M2.5 13.8333V13C7.36667 14.625 12.6333 14.625 17.5 13V13.8333" stroke="currentColor" stroke-width="1.5" stroke-linecap="round" stroke-linejoin="round"/>
<path d="M2.5 8C7.36667 6.375 12.6333 6.375 17.5 8" stroke="currentColor" stroke-width="1.5" stroke-linecap="round" stroke-linejoin="round"/>
</svg>
