<svg width="16" height="16" viewBox="0 0 16 16" fill="none" xmlns="http://www.w3.org/2000/svg">
<path d="M6.26312 12.2053H9.73741M11.566 14.3996H4.43455C4.0306 14.3996 3.70312 14.0721 3.70312 13.6682V11.7143C3.70312 11.5581 3.75309 11.4061 3.84571 11.2804L5.94342 8.43349C6.13354 8.17548 6.13354 7.82374 5.94342 7.56573L3.84571 4.71883C3.75309 4.59313 3.70312 4.44109 3.70312 4.28495V2.33104C3.70312 1.92708 4.0306 1.59961 4.43455 1.59961H11.3831C11.7871 1.59961 12.1146 1.92708 12.1146 2.33104V4.29905C12.1146 4.44645 12.07 4.59042 11.9868 4.71207L10.0307 7.57089C9.85508 7.82762 9.86103 8.16737 10.0456 8.4178L12.1548 11.2804C12.2474 11.4061 12.2974 11.5581 12.2974 11.7143V13.6682C12.2974 14.0721 11.9699 14.3996 11.566 14.3996Z" stroke="currentColor" stroke-width="1.5" stroke-linecap="round" stroke-linejoin="round"/>
</svg>
