<svg width="18" height="32" viewBox="0 0 18 32" fill="none" xmlns="http://www.w3.org/2000/svg">
<g clip-path="url(#clip0_456_4556)">
<path d="M0.341797 14.3726C4.6603 15.0813 7.42564 17.6013 9.01667 21.8144C10.6077 17.6013 13.3731 15.0813 17.5779 14.3726C17.6916 17.9951 15.002 22.9563 9.81219 23.5469C5.00123 24.1376 0.682731 20.0032 0.341797 14.3726Z" fill="#F2B430"/>
<path d="M17.6904 6.49756C17.4252 11.8132 13.7886 15.8294 9.43221 15.9476C4.50761 16.1051 0.833077 12.4432 0.302734 6.77319C2.31046 6.97006 4.05301 7.79693 5.60616 9.05693C7.19718 10.3563 8.18211 12.0888 9.0155 14.1757C10.0004 11.5376 11.402 9.45068 13.6371 8.19068C14.8493 7.5213 16.213 7.12756 17.6904 6.49756Z" fill="#F2B430"/>
<path d="M0.302734 22.0107C4.62124 22.6801 7.34872 25.2001 8.97763 29.4526C10.6065 25.2001 13.334 22.7195 17.5768 22.0107C17.5389 25.8695 14.7356 30.9095 9.31855 31.2245C4.69699 31.5001 0.719432 27.5232 0.302734 22.0107Z" fill="#F2B430"/>
<path d="M8.97989 10.1987C6.66911 7.48182 6.70698 2.28432 9.01776 0.236816C11.2907 2.59932 11.2907 7.6787 8.97989 10.1987Z" fill="#F2B430"/>
</g>
<defs>
<clipPath id="clip0_456_4556">
<rect width="17.8043" height="31.5" fill="white"/>
</clipPath>
</defs>
</svg>
