<svg width="110" height="40" viewBox="0 0 110 40" fill="none" xmlns="http://www.w3.org/2000/svg">
<path d="M0.118242 20.0094C12.158 20.0923 24.5625 34.8186 24.5625 34.8186L16.0054 20.0094L24.5625 5.20021C24.5459 5.18363 12.1414 19.9099 0.118242 20.0094Z" fill="url(#paint0_linear_49_17288)"/>
<path d="M24.543 34.8228C24.543 34.8228 12.1384 20.0966 0.0986977 20.0137C0.0655308 20.0137 0.0323677 20.0137 -0.000799179 20.0137L5.62104 29.7483C9.45186 36.3651 17.9261 38.6371 24.543 34.8228Z" fill="url(#paint1_linear_49_17288)"/>
<path d="M5.64058 10.2635L0.0187313 19.9981C0.0518982 19.9981 0.0850708 19.9981 0.118238 19.9981C12.158 19.9152 24.5625 5.17231 24.5625 5.17231C17.929 1.35808 9.45482 3.64662 5.64058 10.2635Z" fill="url(#paint2_linear_49_17288)"/>
<path d="M45.5545 4.96L52.5265 24H48.0465L46.5065 19.604H38.8905L37.3785 24H33.0105L39.9825 4.96H45.5545ZM40.2065 15.852H45.2185L42.6985 8.656L40.2065 15.852ZM55.0609 24V4.96H68.0249V8.908H59.2889V24H55.0609ZM70.6742 24V4.96H79.2422C81.4076 4.96 83.0969 5.45467 84.3102 6.444C85.5236 7.41467 86.1302 9.01067 86.1302 11.232C86.1302 13.3973 85.5236 15.0027 84.3102 16.048C83.0969 17.0747 81.4076 17.588 79.2422 17.588H74.9022V24H70.6742ZM74.9022 13.948H78.7662C79.8862 13.948 80.6889 13.7333 81.1742 13.304C81.6596 12.856 81.9022 12.184 81.9022 11.288C81.9022 10.3733 81.6502 9.70133 81.1462 9.272C80.6609 8.824 79.8676 8.6 78.7662 8.6H74.9022V13.948ZM97.9779 24.28C96.5779 24.28 95.2899 24.084 94.1139 23.692C92.9379 23.2813 91.9299 22.6747 91.0899 21.872C90.2499 21.0507 89.5873 20.024 89.1019 18.792C88.6353 17.56 88.4019 16.1133 88.4019 14.452C88.4019 12.828 88.6353 11.4093 89.1019 10.196C89.5873 8.964 90.2499 7.94667 91.0899 7.144C91.9299 6.32267 92.9379 5.70667 94.1139 5.296C95.2899 4.88533 96.5779 4.68 97.9779 4.68C99.3779 4.68 100.666 4.88533 101.842 5.296C103.018 5.70667 104.026 6.32267 104.866 7.144C105.706 7.94667 106.359 8.964 106.826 10.196C107.311 11.4093 107.554 12.828 107.554 14.452C107.554 16.1133 107.311 17.56 106.826 18.792C106.359 20.024 105.706 21.0507 104.866 21.872C104.026 22.6747 103.018 23.2813 101.842 23.692C100.666 24.084 99.3779 24.28 97.9779 24.28ZM97.9779 20.528C99.6579 20.528 100.955 19.9867 101.87 18.904C102.785 17.8213 103.242 16.3373 103.242 14.452C103.242 12.5667 102.785 11.092 101.87 10.028C100.955 8.964 99.6579 8.432 97.9779 8.432C96.2979 8.432 95.0006 8.964 94.0859 10.028C93.1713 11.092 92.7139 12.5667 92.7139 14.452C92.7139 16.3373 93.1713 17.8213 94.0859 18.904C95.0006 19.9867 96.2979 20.528 97.9779 20.528Z" fill="#1F1F1F"/>
<path d="M34.3025 34.204C34.3105 33.884 34.3185 33.512 34.3265 33.088C34.3345 32.656 34.3385 32.204 34.3385 31.732C34.3465 31.26 34.3505 30.776 34.3505 30.28C34.3585 29.776 34.3625 29.296 34.3625 28.84H40.2425V37H38.7785V30.208H35.7905C35.7905 30.536 35.7865 30.888 35.7785 31.264C35.7785 31.632 35.7745 32.004 35.7665 32.38C35.7665 32.748 35.7625 33.108 35.7545 33.46C35.7465 33.804 35.7385 34.116 35.7305 34.396C35.6985 35.34 35.4905 36.012 35.1065 36.412C34.7225 36.804 34.1265 37 33.3185 37H32.6945V35.608H33.1025C33.4545 35.608 33.7385 35.516 33.9545 35.332C34.1705 35.148 34.2865 34.772 34.3025 34.204ZM45.8192 37.12C45.2272 37.12 44.6832 37.032 44.1872 36.856C43.6992 36.672 43.2792 36.404 42.9272 36.052C42.5752 35.7 42.2992 35.264 42.0992 34.744C41.9072 34.216 41.8112 33.608 41.8112 32.92C41.8112 32.248 41.9072 31.648 42.0992 31.12C42.2992 30.592 42.5752 30.152 42.9272 29.8C43.2792 29.448 43.6992 29.18 44.1872 28.996C44.6832 28.812 45.2272 28.72 45.8192 28.72C46.4192 28.72 46.9672 28.812 47.4632 28.996C47.9592 29.18 48.3792 29.448 48.7232 29.8C49.0752 30.152 49.3472 30.592 49.5392 31.12C49.7392 31.648 49.8392 32.248 49.8392 32.92C49.8392 33.608 49.7392 34.216 49.5392 34.744C49.3472 35.264 49.0752 35.7 48.7232 36.052C48.3792 36.404 47.9592 36.672 47.4632 36.856C46.9672 37.032 46.4192 37.12 45.8192 37.12ZM45.8192 35.812C46.6272 35.812 47.2512 35.552 47.6912 35.032C48.1312 34.504 48.3512 33.8 48.3512 32.92C48.3512 32.032 48.1312 31.328 47.6912 30.808C47.2512 30.288 46.6272 30.028 45.8192 30.028C45.0192 30.028 44.3952 30.288 43.9472 30.808C43.5072 31.328 43.2872 32.032 43.2872 32.92C43.2872 33.8 43.5072 34.504 43.9472 35.032C44.3952 35.552 45.0192 35.812 45.8192 35.812ZM51.3936 37V28.84H56.8176V30.208H52.8576V37H51.3936ZM63.6667 37V30.808L59.5627 37H58.0147V28.84H59.4667V34.984L63.5107 28.84H65.1187V37H63.6667ZM70.5901 35.812C71.2381 35.812 71.7341 35.664 72.0781 35.368C72.4301 35.064 72.6581 34.664 72.7621 34.168L74.2021 34.408C74.0341 35.288 73.6501 35.96 73.0501 36.424C72.4501 36.888 71.6301 37.12 70.5901 37.12C69.9981 37.12 69.4621 37.028 68.9821 36.844C68.5021 36.66 68.0901 36.392 67.7461 36.04C67.4101 35.68 67.1501 35.24 66.9661 34.72C66.7821 34.2 66.6901 33.604 66.6901 32.932C66.6901 32.244 66.7861 31.636 66.9781 31.108C67.1701 30.58 67.4381 30.14 67.7821 29.788C68.1261 29.436 68.5381 29.172 69.0181 28.996C69.4981 28.812 70.0261 28.72 70.6021 28.72C71.6341 28.72 72.4501 28.956 73.0501 29.428C73.6581 29.9 74.0381 30.564 74.1901 31.42L72.7501 31.66C72.6301 31.188 72.4021 30.8 72.0661 30.496C71.7301 30.184 71.2421 30.028 70.6021 30.028C69.8341 30.028 69.2341 30.288 68.8021 30.808C68.3781 31.32 68.1661 32.028 68.1661 32.932C68.1661 33.82 68.3821 34.524 68.8141 35.044C69.2461 35.556 69.8381 35.812 70.5901 35.812ZM74.99 30.208V28.84H82.226V30.208H79.346V37H77.882V30.208H74.99ZM89.0729 37V30.808L84.9689 37H83.4209V28.84H84.8729V34.984L88.9169 28.84H90.5249V37H89.0729ZM92.4444 37V28.84H93.9084V32.212H95.2284L97.4604 28.84H99.1764L96.4404 32.8L99.2844 37H97.4724L95.2164 33.556H93.9084V37H92.4444ZM104.497 28.84L107.581 37H106.021L105.265 34.936H101.809L101.077 37H99.5413L102.601 28.84H104.497ZM102.289 33.616H104.785L103.525 30.148L102.289 33.616Z" fill="#1F1F1F"/>
<defs>
<linearGradient id="paint0_linear_49_17288" x1="0.110995" y1="19.9936" x2="24.553" y2="19.9936" gradientUnits="userSpaceOnUse">
<stop stop-color="#F2B430"/>
<stop offset="1" stop-color="#D5AA8A"/>
</linearGradient>
<linearGradient id="paint1_linear_49_17288" x1="12.2614" y1="20.0168" x2="12.2614" y2="36.6828" gradientUnits="userSpaceOnUse">
<stop stop-color="#856010"/>
<stop offset="1" stop-color="#F4B020"/>
</linearGradient>
<linearGradient id="paint2_linear_49_17288" x1="12.2809" y1="3.32927" x2="12.2809" y2="20.0077" gradientUnits="userSpaceOnUse">
<stop stop-color="#F4B020"/>
<stop offset="1" stop-color="#856010"/>
</linearGradient>
</defs>
</svg>
