<svg width="64" height="31" viewBox="0 0 64 31" fill="none" xmlns="http://www.w3.org/2000/svg">
<path d="M10.7087 12.9316L8.70869 8.48363L6.75669 12.9316H10.7087ZM12.8047 17.6196L11.8767 15.5556H5.58869L4.67669 17.6196H0.852688L6.26069 5.71563H11.3007L16.8847 17.6196H12.8047ZM18.3377 17.6196V5.71563H28.7857V8.54763H22.1617V17.6196H18.3377ZM38.9404 13.9396H34.3804V17.6196H30.5564V5.71563H38.9404C43.0364 5.71563 44.2044 7.36363 44.2044 9.69963V9.89163C44.2044 12.2116 43.0044 13.9396 38.9404 13.9396ZM34.3804 8.57963V11.0916H38.6204C39.8204 11.0916 40.2364 10.5956 40.2364 9.84363V9.79563C40.2364 9.09163 39.8204 8.57963 38.6204 8.57963H34.3804ZM53.2802 5.52363H54.0002C59.9522 5.52363 61.4082 8.86763 61.4082 11.3956V11.8756C61.4082 14.3716 59.9682 17.8116 54.0002 17.8116H53.2802C47.3282 17.8116 45.8722 14.3716 45.8722 11.8756V11.3956C45.8722 8.86763 47.3282 5.52363 53.2802 5.52363ZM57.4242 11.7316V11.5236C57.4242 10.2276 56.8162 8.49963 53.6482 8.49963C50.4642 8.49963 49.8562 10.2276 49.8562 11.5236V11.7316C49.8562 13.0276 50.5282 14.8036 53.6482 14.8036C56.8162 14.8036 57.4242 13.0276 57.4242 11.7316Z" fill="#1F1F1F"/>
<path d="M2.25469 25.5504C2.26135 25.2837 2.26802 24.9737 2.27469 24.6204C2.28135 24.2604 2.28469 23.8837 2.28469 23.4904C2.29135 23.097 2.29469 22.6937 2.29469 22.2804C2.30135 21.8604 2.30469 21.4604 2.30469 21.0804H7.20469V27.8804H5.98469V22.2204H3.49469C3.49469 22.4937 3.49135 22.787 3.48469 23.1004C3.48469 23.407 3.48135 23.717 3.47469 24.0304C3.47469 24.337 3.47135 24.637 3.46469 24.9304C3.45802 25.217 3.45135 25.477 3.44469 25.7104C3.41802 26.497 3.24469 27.057 2.92469 27.3904C2.60469 27.717 2.10802 27.8804 1.43469 27.8804H0.914688V26.7204H1.25469C1.54802 26.7204 1.78469 26.6437 1.96469 26.4904C2.14469 26.337 2.24135 26.0237 2.25469 25.5504ZM11.852 27.9804C11.3586 27.9804 10.9053 27.907 10.492 27.7604C10.0853 27.607 9.73529 27.3837 9.44195 27.0904C9.14862 26.797 8.91862 26.4337 8.75195 26.0004C8.59195 25.5604 8.51195 25.0537 8.51195 24.4804C8.51195 23.9204 8.59195 23.4204 8.75195 22.9804C8.91862 22.5404 9.14862 22.1737 9.44195 21.8804C9.73529 21.587 10.0853 21.3637 10.492 21.2104C10.9053 21.057 11.3586 20.9804 11.852 20.9804C12.352 20.9804 12.8086 21.057 13.222 21.2104C13.6353 21.3637 13.9853 21.587 14.272 21.8804C14.5653 22.1737 14.792 22.5404 14.952 22.9804C15.1186 23.4204 15.202 23.9204 15.202 24.4804C15.202 25.0537 15.1186 25.5604 14.952 26.0004C14.792 26.4337 14.5653 26.797 14.272 27.0904C13.9853 27.3837 13.6353 27.607 13.222 27.7604C12.8086 27.907 12.352 27.9804 11.852 27.9804ZM11.852 26.8904C12.5253 26.8904 13.0453 26.6737 13.412 26.2404C13.7786 25.8004 13.962 25.2137 13.962 24.4804C13.962 23.7404 13.7786 23.1537 13.412 22.7204C13.0453 22.287 12.5253 22.0704 11.852 22.0704C11.1853 22.0704 10.6653 22.287 10.292 22.7204C9.92529 23.1537 9.74195 23.7404 9.74195 24.4804C9.74195 25.2137 9.92529 25.8004 10.292 26.2404C10.6653 26.6737 11.1853 26.8904 11.852 26.8904ZM16.4973 27.8804V21.0804H21.0173V22.2204H17.7173V27.8804H16.4973ZM26.7248 27.8804V22.7204L23.3048 27.8804H22.0148V21.0804H23.2248V26.2004L26.5948 21.0804H27.9348V27.8804H26.7248ZM32.4944 26.8904C33.0344 26.8904 33.4477 26.767 33.7344 26.5204C34.0277 26.267 34.2177 25.9337 34.3044 25.5204L35.5044 25.7204C35.3644 26.4537 35.0444 27.0137 34.5444 27.4004C34.0444 27.787 33.361 27.9804 32.4944 27.9804C32.001 27.9804 31.5544 27.9037 31.1544 27.7504C30.7544 27.597 30.411 27.3737 30.1244 27.0804C29.8444 26.7804 29.6277 26.4137 29.4744 25.9804C29.321 25.547 29.2444 25.0504 29.2444 24.4904C29.2444 23.917 29.3244 23.4104 29.4844 22.9704C29.6444 22.5304 29.8677 22.1637 30.1544 21.8704C30.441 21.577 30.7844 21.357 31.1844 21.2104C31.5844 21.057 32.0244 20.9804 32.5044 20.9804C33.3644 20.9804 34.0444 21.177 34.5444 21.5704C35.051 21.9637 35.3677 22.517 35.4944 23.2304L34.2944 23.4304C34.1944 23.037 34.0044 22.7137 33.7244 22.4604C33.4444 22.2004 33.0377 22.0704 32.5044 22.0704C31.8644 22.0704 31.3644 22.287 31.0044 22.7204C30.651 23.147 30.4744 23.737 30.4744 24.4904C30.4744 25.2304 30.6544 25.817 31.0144 26.2504C31.3744 26.677 31.8677 26.8904 32.4944 26.8904ZM36.1609 22.2204V21.0804H42.1909V22.2204H39.7909V27.8804H38.5709V22.2204H36.1609ZM47.8967 27.8804V22.7204L44.4767 27.8804H43.1867V21.0804H44.3967V26.2004L47.7667 21.0804H49.1067V27.8804H47.8967ZM50.7063 27.8804V21.0804H51.9263V23.8904H53.0263L54.8863 21.0804H56.3163L54.0363 24.3804L56.4063 27.8804H54.8963L53.0163 25.0104H51.9263V27.8804H50.7063ZM60.7504 21.0804L63.3204 27.8804H62.0204L61.3904 26.1604H58.5104L57.9004 27.8804H56.6204L59.1704 21.0804H60.7504ZM58.9104 25.0604H60.9904L59.9404 22.1704L58.9104 25.0604Z" fill="#1F1F1F"/>
</svg>
