<svg width="49" height="24" viewBox="0 0 49 24" fill="none" xmlns="http://www.w3.org/2000/svg">
<path d="M8.303 10.3463L6.803 7.0103L5.339 10.3463H8.303ZM9.875 13.8623L9.179 12.3143H4.463L3.779 13.8623H0.911L4.967 4.93431H8.747L12.935 13.8623H9.875ZM14.3847 13.8623V4.93431H22.2207V7.0583H17.2527V13.8623H14.3847ZM30.1968 11.1023H26.7768V13.8623H23.9088V4.93431H30.1968C33.2688 4.93431 34.1448 6.1703 34.1448 7.9223V8.06631C34.1448 9.8063 33.2448 11.1023 30.1968 11.1023ZM26.7768 7.08231V8.9663H29.9568C30.8568 8.9663 31.1688 8.5943 31.1688 8.0303V7.9943C31.1688 7.4663 30.8568 7.08231 29.9568 7.08231H26.7768ZM41.3116 4.7903H41.8516C46.3156 4.7903 47.4076 7.2983 47.4076 9.1943V9.5543C47.4076 11.4263 46.3276 14.0063 41.8516 14.0063H41.3116C36.8476 14.0063 35.7556 11.4263 35.7556 9.5543V9.1943C35.7556 7.2983 36.8476 4.7903 41.3116 4.7903ZM44.4196 9.4463V9.2903C44.4196 8.3183 43.9636 7.0223 41.5876 7.0223C39.1996 7.0223 38.7436 8.3183 38.7436 9.2903V9.4463C38.7436 10.4183 39.2476 11.7503 41.5876 11.7503C43.9636 11.7503 44.4196 10.4183 44.4196 9.4463Z" fill="#1F1F1F"/>
<path d="M0.987 21.8623V21.1903C1.355 21.2436 1.62967 21.1423 1.811 20.8863C1.99767 20.625 2.091 20.1423 2.091 19.4383V16.2623H5.787V21.8623H5.043V16.9663H2.835V19.4383C2.835 19.9396 2.787 20.361 2.691 20.7023C2.60033 21.0383 2.467 21.2916 2.291 21.4623C2.12033 21.633 1.92833 21.7503 1.715 21.8143C1.507 21.873 1.26433 21.889 0.987 21.8623ZM11.6466 21.1183C11.0866 21.6836 10.4013 21.9663 9.59063 21.9663C8.77996 21.9663 8.09463 21.6836 7.53463 21.1183C6.97463 20.553 6.69463 19.8676 6.69463 19.0623C6.69463 18.2516 6.97463 17.5663 7.53463 17.0063C8.09463 16.441 8.77996 16.1583 9.59063 16.1583C10.4013 16.1583 11.0866 16.441 11.6466 17.0063C12.212 17.5663 12.4946 18.2516 12.4946 19.0623C12.4946 19.8676 12.212 20.553 11.6466 21.1183ZM8.04663 20.6143C8.46263 21.0303 8.97729 21.2383 9.59063 21.2383C10.204 21.2383 10.716 21.0303 11.1266 20.6143C11.5426 20.193 11.7506 19.6756 11.7506 19.0623C11.7506 18.4436 11.5426 17.9263 11.1266 17.5103C10.716 17.089 10.204 16.8783 9.59063 16.8783C8.97729 16.8783 8.46263 17.089 8.04663 17.5103C7.63596 17.9263 7.43063 18.4436 7.43063 19.0623C7.43063 19.6756 7.63596 20.193 8.04663 20.6143ZM16.5331 16.2623V16.9663H14.1331V21.8623H13.3891V16.2623H16.5331ZM20.7519 21.8623V17.6863L17.8719 21.8623H17.2719V16.2623H18.0159V20.4463L20.8959 16.2623H21.4959V21.8623H20.7519ZM25.3258 21.9663C24.4778 21.9663 23.7764 21.6863 23.2218 21.1263C22.6724 20.5663 22.3978 19.8783 22.3978 19.0623C22.3978 18.2463 22.6724 17.5583 23.2218 16.9983C23.7764 16.4383 24.4778 16.1583 25.3258 16.1583C25.8378 16.1583 26.3071 16.281 26.7338 16.5263C27.1658 16.7716 27.5018 17.1023 27.7418 17.5183L27.0938 17.8943C26.9338 17.585 26.6938 17.3396 26.3738 17.1583C26.0591 16.9716 25.7098 16.8783 25.3258 16.8783C24.6804 16.8783 24.1524 17.0863 23.7418 17.5023C23.3364 17.9183 23.1338 18.4383 23.1338 19.0623C23.1338 19.681 23.3364 20.1983 23.7418 20.6143C24.1524 21.0303 24.6804 21.2383 25.3258 21.2383C25.7098 21.2383 26.0591 21.1476 26.3738 20.9663C26.6938 20.7796 26.9338 20.5343 27.0938 20.2303L27.7418 20.5983C27.5071 21.0143 27.1738 21.3476 26.7418 21.5983C26.3098 21.8436 25.8378 21.9663 25.3258 21.9663ZM32.1059 16.2623V16.9663H30.4499V21.8623H29.7139V16.9663H28.0659V16.2623H32.1059ZM36.3222 21.8623V17.6863L33.4422 21.8623H32.8422V16.2623H33.5862V20.4463L36.4662 16.2623H37.0662V21.8623H36.3222ZM42.3361 21.8623H41.4241L39.0081 19.1743V21.8623H38.2641V16.2623H39.0081V18.7903L41.3441 16.2623H42.2561L39.7841 18.9823L42.3361 21.8623ZM46.788 21.8623L46.332 20.6063H43.812L43.356 21.8623H42.564L44.652 16.2623H45.492L47.58 21.8623H46.788ZM44.068 19.9103H46.076L45.068 17.1503L44.068 19.9103Z" fill="#1F1F1F"/>
</svg>
