<svg width="102" height="57" viewBox="0 0 102 57" fill="none" xmlns="http://www.w3.org/2000/svg">
<path d="M46.2832 47.9423C44.0956 50.0453 39.4133 50.6277 36.0029 49.6249C30.5589 48.0401 27.1615 44.5651 25.3255 39.741C21.6142 30.2482 22.9485 21.4997 30.2158 14.1262C33.6167 10.671 38.0414 9.03509 43.1298 9.95504C44.2171 10.1396 45.269 10.8106 46.3013 11.5592C44.5802 11.4665 42.7537 11.1004 41.0365 11.3386C35.3722 12.0099 31.4553 15.0907 28.7423 19.6225C24.8041 26.2461 24.1044 33.1702 27.3396 40.4008C30.6802 47.9049 37.5513 50.7479 45.4657 48.0715C45.6495 48.0341 45.9155 48.017 46.2832 47.9423Z" fill="#F2B430"/>
<path d="M18.0004 28.5846C18.4073 28.2539 18.8291 27.8445 19.2509 27.435C20.9527 31.1815 19.9675 35.4796 17.1873 37.889C15.9517 38.9598 14.731 39.952 13.4954 41.0228C8.78658 36.7891 9.7545 31.6723 15.631 29.2779C16.3704 29.0101 17.1779 28.8367 18.0004 28.5846C13.2342 31.026 10.7404 36.0172 12.7549 38.1105C14.0626 35.7487 15.3851 33.3082 16.7225 30.789C17.1208 30.0489 17.519 29.3089 18.0004 28.5846Z" fill="#F2B430"/>
<path d="M19.4649 39.5433C16.9005 43.5428 17.2638 46.6284 21.0746 48.3276C18.4524 44.8963 18.8371 41.9522 21.291 38.9919C22.5834 42.1717 25.3633 45.2251 22.4429 48.8311C22.1191 49.1775 21.0175 49.5399 20.7979 49.3353C19.3676 48.2494 17.8543 47.1477 16.8161 45.8098C14.9294 43.496 15.2656 42.1735 17.6624 40.4254C18.2504 40.0474 18.6871 39.5593 19.2069 39.0869C19.2603 39.26 19.3285 39.3545 19.4649 39.5433Z" fill="#F2B430"/>
<path d="M10.3589 29.0143C14.1863 22.8893 14.1863 22.8893 21.9882 17.5976C21.8875 22.2261 19.2674 25.155 14.8014 26.9194C12.9604 27.5496 11.2943 28.6205 10.3589 29.0143Z" fill="#F2B430"/>
<path d="M39.6896 53.6421C31.1275 54.3055 22.7887 53.7881 14.7218 50.4683C18.1828 51.2861 21.7269 52.1196 25.4373 52.9845C24.8977 51.7409 24.533 50.9381 24.2366 50.2297C24.3346 50.1667 24.5157 50.1195 24.6138 50.0565C25.6049 50.7332 26.5811 51.4886 27.5722 52.1653C27.6851 52.0236 27.7832 51.9606 27.9792 51.8346C27.3565 50.5753 26.8169 49.3317 26.1794 48.1511C26.2923 48.0094 26.4883 47.8834 26.5863 47.8204C29.8524 51.9443 34.3876 53.4545 39.6896 53.6421Z" fill="#F2B430"/>
<path d="M13.9663 17.1392C17.2253 13.1081 21.9345 11.879 26.5071 10.461C26.6436 10.6498 26.7949 10.76 26.9313 10.9489C25.5977 12.0827 24.4687 13.4999 22.8771 14.1773C20.1392 15.4532 17.1582 16.1938 13.9663 17.1392Z" fill="#F2B430"/>
<path d="M21.8563 7.78851C25.2418 5.81976 29.5811 7.45594 33.397 5.48708C32.3165 5.28269 31.6516 5.15692 30.9867 5.03114C31.0165 4.8737 31.0463 4.71628 31.0761 4.55884C33.2966 4.65274 35.6002 4.76234 37.8207 4.85624C37.8741 5.0294 37.8294 5.26557 37.8827 5.43873C32.6067 6.47912 27.3307 7.5195 22.0547 8.55989C22.0312 8.22929 21.8948 8.04039 21.8563 7.78851Z" fill="#F2B430"/>
<path d="M17.3337 18.51C13.8055 20.7779 11.2536 23.8012 9.98059 27.8003C9.09263 23.3924 11.4014 19.8339 17.3337 18.51Z" fill="#F2B430"/>
<path d="M6.58983 26.9974C6.08386 24.211 5.661 21.4403 5.16992 18.5752C8.11978 20.2747 8.54017 22.148 7.20138 26.95C7.02026 26.9973 6.83918 27.0446 6.58983 26.9974Z" fill="#F2B430"/>
<path d="M3.31641 29.3926C6.35561 30.6198 7.64563 32.9022 8.31783 35.7201C5.75619 35.154 4.07415 33.1235 3.31641 29.3926Z" fill="#F2B430"/>
<path d="M10.7238 9.75938C13.5695 12.0099 13.1798 13.1593 10.1317 16.9856C8.72009 14.4356 11.0785 12.4356 10.7238 9.75938Z" fill="#F2B430"/>
<path d="M3.65154 19.3477C4.14262 22.2128 4.54194 24.6529 4.97103 26.9355C2.03849 26.0547 1.36005 23.7249 3.65154 19.3477Z" fill="#F2B430"/>
<path d="M2.01367 30.2891C2.95877 33.4847 2.95879 33.4847 7.12178 36.9629C3.20919 36.712 1.45891 34.5871 2.01367 30.2891Z" fill="#F2B430"/>
<path d="M12.1822 44.8502C9.80543 42.8514 7.41383 40.9314 5.03711 38.9326C9.18658 40.2068 12.0855 42.6304 12.1822 44.8502Z" fill="#F2B430"/>
<path d="M9.34464 10.6398C8.80614 12.5763 8.36565 14.4499 7.85693 16.229C5.66375 15.0803 5.90201 13.8208 9.34464 10.6398Z" fill="#F2B430"/>
<path d="M4.70117 40.6641C6.58544 42.0805 8.31835 43.3867 10.0662 44.6143C7.09139 44.8669 5.81006 42.9938 4.70117 40.6641Z" fill="#F2B430"/>
<path d="M16.2503 49.696C14.0274 48.7047 11.8726 47.8079 9.64967 46.8167C9.67945 46.6592 9.79238 46.5175 9.83705 46.2814C12.0898 47.1152 14.3276 48.0277 16.5803 48.8615C16.5208 49.1764 16.3781 49.4756 16.2503 49.696Z" fill="#F2B430"/>
<path d="M20.1103 6.48274C18.6105 7.58514 17.0275 8.67185 15.5277 9.77425C15.8168 7.79054 17.3018 6.76683 20.1103 6.48274Z" fill="#F2B430"/>
<path d="M20.2045 6.49774C19.9167 6.19869 19.629 5.89965 19.1067 5.47471C20.4279 5.31695 21.5828 5.12776 22.7377 4.93855C22.7911 5.11171 22.8593 5.20612 22.9126 5.37928C22.0604 5.78882 21.1399 6.10393 20.2045 6.49774Z" fill="#F2B430"/>
<path d="M17.9826 28.6287C17.5844 29.3687 17.103 30.093 16.7048 30.833C15.3822 33.2736 13.9617 35.7771 12.7372 38.1546C10.6396 36.0455 13.2164 31.0701 17.9826 28.6287Z" fill="white"/>
<path d="M43.142 23.726L40.892 18.722L38.696 23.726H43.142ZM45.5 29L44.456 26.678H37.382L36.356 29H32.054L38.138 15.608H43.808L50.09 29H45.5ZM52.2646 29V15.608H64.0186V18.794H56.5666V29H52.2646ZM75.9827 24.86H70.8527V29H66.5507V15.608H75.9827C80.5907 15.608 81.9047 17.462 81.9047 20.09V20.306C81.9047 22.916 80.5547 24.86 75.9827 24.86ZM70.8527 18.83V21.656H75.6227C76.9727 21.656 77.4407 21.098 77.4407 20.252V20.198C77.4407 19.406 76.9727 18.83 75.6227 18.83H70.8527ZM92.6549 15.392H93.4649C100.161 15.392 101.799 19.154 101.799 21.998V22.538C101.799 25.346 100.179 29.216 93.4649 29.216H92.6549C85.9589 29.216 84.3209 25.346 84.3209 22.538V21.998C84.3209 19.154 85.9589 15.392 92.6549 15.392ZM97.3169 22.376V22.142C97.3169 20.684 96.6329 18.74 93.0689 18.74C89.4869 18.74 88.8029 20.684 88.8029 22.142V22.376C88.8029 23.834 89.5589 25.832 93.0689 25.832C96.6329 25.832 97.3169 23.834 97.3169 22.376Z" fill="#1F1F1F"/>
<path d="M32.168 43V41.992C32.72 42.072 33.132 41.92 33.404 41.536C33.684 41.144 33.824 40.42 33.824 39.364V34.6H39.368V43H38.252V35.656H34.94V39.364C34.94 40.116 34.868 40.748 34.724 41.26C34.588 41.764 34.388 42.144 34.124 42.4C33.868 42.656 33.58 42.832 33.26 42.928C32.948 43.016 32.584 43.04 32.168 43ZM48.1574 41.884C47.3174 42.732 46.2894 43.156 45.0734 43.156C43.8574 43.156 42.8294 42.732 41.9894 41.884C41.1494 41.036 40.7294 40.008 40.7294 38.8C40.7294 37.584 41.1494 36.556 41.9894 35.716C42.8294 34.868 43.8574 34.444 45.0734 34.444C46.2894 34.444 47.3174 34.868 48.1574 35.716C49.0054 36.556 49.4294 37.584 49.4294 38.8C49.4294 40.008 49.0054 41.036 48.1574 41.884ZM42.7574 41.128C43.3814 41.752 44.1534 42.064 45.0734 42.064C45.9934 42.064 46.7614 41.752 47.3774 41.128C48.0014 40.496 48.3134 39.72 48.3134 38.8C48.3134 37.872 48.0014 37.096 47.3774 36.472C46.7614 35.84 45.9934 35.524 45.0734 35.524C44.1534 35.524 43.3814 35.84 42.7574 36.472C42.1414 37.096 41.8334 37.872 41.8334 38.8C41.8334 39.72 42.1414 40.496 42.7574 41.128ZM55.4871 34.6V35.656H51.8871V43H50.7711V34.6H55.4871ZM61.8153 43V36.736L57.4953 43H56.5953V34.6H57.7113V40.876L62.0313 34.6H62.9313V43H61.8153ZM68.6761 43.156C67.4041 43.156 66.3521 42.736 65.5201 41.896C64.6961 41.056 64.2841 40.024 64.2841 38.8C64.2841 37.576 64.6961 36.544 65.5201 35.704C66.3521 34.864 67.4041 34.444 68.6761 34.444C69.4441 34.444 70.1481 34.628 70.7881 34.996C71.4361 35.364 71.9401 35.86 72.3001 36.484L71.3281 37.048C71.0881 36.584 70.7281 36.216 70.2481 35.944C69.7761 35.664 69.2521 35.524 68.6761 35.524C67.7081 35.524 66.9161 35.836 66.3001 36.46C65.6921 37.084 65.3881 37.864 65.3881 38.8C65.3881 39.728 65.6921 40.504 66.3001 41.128C66.9161 41.752 67.7081 42.064 68.6761 42.064C69.2521 42.064 69.7761 41.928 70.2481 41.656C70.7281 41.376 71.0881 41.008 71.3281 40.552L72.3001 41.104C71.9481 41.728 71.4481 42.228 70.8001 42.604C70.1521 42.972 69.4441 43.156 68.6761 43.156ZM78.8463 34.6V35.656H76.3623V43H75.2583V35.656H72.7863V34.6H78.8463ZM85.1708 43V36.736L80.8508 43H79.9508V34.6H81.0668V40.876L85.3868 34.6H86.2868V43H85.1708ZM94.1916 43H92.8236L89.1996 38.968V43H88.0836V34.6H89.1996V38.392L92.7036 34.6H94.0716L90.3636 38.68L94.1916 43ZM100.87 43L100.186 41.116H96.4055L95.7215 43H94.5335L97.6655 34.6H98.9255L102.058 43H100.87ZM96.7895 40.072H99.8015L98.2895 35.932L96.7895 40.072Z" fill="#1F1F1F"/>
</svg>
