<svg width="34" height="36" viewBox="0 0 34 36" fill="none" xmlns="http://www.w3.org/2000/svg">
<path d="M27.2262 29.3654C25.9136 30.6271 23.1041 30.9766 21.0579 30.3749C17.7914 29.424 15.7529 27.339 14.6513 24.4445C12.4244 18.7488 13.225 13.4997 17.5855 9.07561C19.626 7.00252 22.2809 6.02095 25.334 6.57294C25.9864 6.68369 26.6176 7.08626 27.2369 7.53545C26.2043 7.47981 25.1084 7.26013 24.078 7.40307C20.6794 7.80587 18.3292 9.65434 16.7014 12.3734C14.3384 16.3476 13.9186 20.502 15.8597 24.8404C17.8642 29.3429 21.987 31.0487 26.7357 29.4429C26.846 29.4205 27.0056 29.4102 27.2262 29.3654Z" fill="#F2B430"/>
<path d="M10.2566 17.7486C10.5007 17.5502 10.7538 17.3045 11.0069 17.0589C12.028 19.3068 11.4368 21.8856 9.76872 23.3313C9.02733 23.9738 8.29489 24.5691 7.55351 25.2116C4.72818 22.6713 5.30893 19.6013 8.83489 18.1646C9.27852 18.0039 9.76307 17.8999 10.2566 17.7486C7.39678 19.2135 5.90052 22.2082 7.10924 23.4642C7.89384 22.0471 8.68737 20.5828 9.48984 19.0713C9.72879 18.6272 9.96774 18.1832 10.2566 17.7486Z" fill="#F2B430"/>
<path d="M11.1341 24.3239C9.5954 26.7235 9.81341 28.5749 12.0999 29.5945C10.5265 27.5357 10.7573 25.7692 12.2297 23.993C13.0052 25.9009 14.6732 27.733 12.9209 29.8965C12.7266 30.1044 12.0656 30.3218 11.9339 30.199C11.0757 29.5475 10.1677 28.8865 9.54474 28.0837C8.41269 26.6955 8.61444 25.902 10.0525 24.8531C10.4054 24.6263 10.6674 24.3334 10.9793 24.05C11.0113 24.1539 11.0522 24.2105 11.1341 24.3239Z" fill="#F2B430"/>
<path d="M5.67005 18.0078C7.9665 14.3328 7.9665 14.3328 12.6478 11.1578C12.5873 13.9349 11.0152 15.6923 8.33556 16.7509C7.23095 17.129 6.23128 17.7716 5.67005 18.0078Z" fill="#F2B430"/>
<path d="M23.2711 32.7851C18.1337 33.1831 13.1304 32.8727 8.2901 30.8808C10.3668 31.3715 12.4933 31.8716 14.7195 32.3905C14.3958 31.6444 14.177 31.1627 13.9991 30.7377C14.0579 30.6999 14.1666 30.6715 14.2254 30.6337C14.8201 31.0397 15.4058 31.493 16.0005 31.899C16.0683 31.814 16.1271 31.7762 16.2447 31.7006C15.8711 30.945 15.5473 30.1989 15.1648 29.4905C15.2325 29.4055 15.3501 29.3299 15.4089 29.2921C17.3686 31.7664 20.0898 32.6726 23.2711 32.7851Z" fill="#F2B430"/>
<path d="M7.8364 10.8834C9.79188 8.4647 12.6174 7.72723 15.361 6.87641C15.4429 6.98974 15.5337 7.05584 15.6156 7.16917C14.8154 7.84947 14.138 8.69979 13.183 9.1062C11.5402 9.87173 9.75158 10.3161 7.8364 10.8834Z" fill="#F2B430"/>
<path d="M12.5704 5.27312C14.6018 4.09187 17.2054 5.07359 19.495 3.89227C18.8467 3.76964 18.4477 3.69417 18.0488 3.61871C18.0667 3.52424 18.0845 3.42979 18.1024 3.33533C19.4347 3.39167 20.8169 3.45744 22.1493 3.51378C22.1813 3.61767 22.1545 3.75938 22.1865 3.86327C19.0208 4.4875 15.8551 5.11172 12.6895 5.73594C12.6754 5.53758 12.5935 5.42425 12.5704 5.27312Z" fill="#F2B430"/>
<path d="M9.85498 11.705C7.73804 13.0658 6.20686 14.8798 5.44305 17.2792C4.91025 14.6345 6.29556 12.4994 9.85498 11.705Z" fill="#F2B430"/>
<path d="M3.40862 16.7985C3.10503 15.1266 2.8513 13.4642 2.55664 11.7451C4.3266 12.7648 4.57884 13.8888 3.77555 16.77C3.66688 16.7984 3.55823 16.8268 3.40862 16.7985Z" fill="#F2B430"/>
<path d="M1.44336 18.2344C3.26692 18.9707 4.04095 20.3402 4.44429 22.0309C2.90727 21.6912 1.89802 20.4729 1.44336 18.2344Z" fill="#F2B430"/>
<path d="M5.88899 6.45582C7.5964 7.80616 7.36263 8.49577 5.53369 10.7916C4.68673 9.26156 6.10178 8.06158 5.88899 6.45582Z" fill="#F2B430"/>
<path d="M1.64796 12.2074C1.94263 13.9265 2.18223 15.3906 2.43969 16.7602C0.680126 16.2316 0.273048 14.8337 1.64796 12.2074Z" fill="#F2B430"/>
<path d="M0.662109 18.7725C1.22918 20.6898 1.2292 20.6898 3.72705 22.7768C1.37945 22.6262 0.329255 21.3513 0.662109 18.7725Z" fill="#F2B430"/>
<path d="M6.76564 27.5086C5.33958 26.3093 3.90458 25.1573 2.47852 23.958C4.96825 24.7225 6.70766 26.1767 6.76564 27.5086Z" fill="#F2B430"/>
<path d="M5.06423 6.9829C4.74113 8.14483 4.47683 9.26897 4.1716 10.3364C2.85566 9.64721 2.99862 8.89149 5.06423 6.9829Z" fill="#F2B430"/>
<path d="M2.27734 24.998C3.40793 25.8479 4.4477 26.6317 5.49642 27.3682C3.71151 27.5198 2.9427 26.3959 2.27734 24.998Z" fill="#F2B430"/>
<path d="M9.20652 30.4176C7.87272 29.8229 6.57986 29.2848 5.24605 28.69C5.26392 28.5955 5.33168 28.5105 5.35848 28.3688C6.71015 28.8691 8.05287 29.4166 9.40454 29.9169C9.36881 30.1059 9.28319 30.2854 9.20652 30.4176Z" fill="#F2B430"/>
<path d="M11.5248 4.48809C10.6249 5.14953 9.67512 5.80156 8.77519 6.463C8.94868 5.27277 9.83967 4.65854 11.5248 4.48809Z" fill="#F2B430"/>
<path d="M11.5813 4.49807C11.4086 4.31864 11.236 4.13921 10.9226 3.88424C11.7153 3.78959 12.4083 3.67607 13.1013 3.56255C13.1333 3.66645 13.1742 3.7231 13.2062 3.82699C12.6948 4.07272 12.1426 4.26178 11.5813 4.49807Z" fill="#F2B430"/>
<path d="M10.2459 17.7766C10.0069 18.2206 9.71811 18.6552 9.47915 19.0992C8.68562 20.5636 7.83329 22.0657 7.09856 23.4922C5.83997 22.2267 7.38609 19.2415 10.2459 17.7766Z" fill="white"/>
</svg>
