<svg width="20" height="20" viewBox="0 0 20 20" fill="none" xmlns="http://www.w3.org/2000/svg">
<path d="M4.55827 7.50033C6.1691 7.50033 7.47493 6.19449 7.47493 4.58366C7.47493 2.97283 6.1691 1.66699 4.55827 1.66699C2.94744 1.66699 1.6416 2.97283 1.6416 4.58366C1.6416 6.19449 2.94744 7.50033 4.55827 7.50033Z" stroke="currentColor" stroke-width="1.5"/>
<path d="M14.1413 12.5H16.6413C17.5579 12.5 18.3079 13.25 18.3079 14.1667V16.6667C18.3079 17.5833 17.5579 18.3333 16.6413 18.3333H14.1413C13.2246 18.3333 12.4746 17.5833 12.4746 16.6667V14.1667C12.4746 13.25 13.2246 12.5 14.1413 12.5Z" stroke="currentColor" stroke-width="1.5"/>
<path d="M9.99942 4.16699H12.2328C13.7744 4.16699 14.4911 6.07533 13.3328 7.09199L6.67443 12.917C5.51609 13.9253 6.23276 15.8337 7.76609 15.8337H9.99942" stroke="currentColor" stroke-width="1.5" stroke-linecap="round" stroke-linejoin="round"/>
<path d="M4.57111 4.58366H4.58074" stroke="currentColor" stroke-width="2" stroke-linecap="round" stroke-linejoin="round"/>
<path d="M15.4051 15.4167H15.4147" stroke="currentColor" stroke-width="2" stroke-linecap="round" stroke-linejoin="round"/>
</svg>
