<svg width="47" height="46" viewBox="0 0 47 46" fill="none" xmlns="http://www.w3.org/2000/svg">
<path d="M29.25 3.8335V23.0002C29.25 25.1085 27.525 26.8335 25.4167 26.8335H4.33333V14.6052C5.7325 16.2727 7.87922 17.3077 10.2559 17.2502C12.1917 17.2118 13.9358 16.4643 15.2392 15.2185C15.8333 14.7202 16.3317 14.0876 16.715 13.3976C17.405 12.2285 17.7883 10.8484 17.75 9.41094C17.6925 7.16844 16.6959 5.19433 15.1434 3.8335H29.25Z" stroke="currentColor" stroke-width="3" stroke-linecap="round" stroke-linejoin="round"/>
<path d="M42.6667 26.8335V32.5835C42.6667 35.7652 40.0983 38.3335 36.9167 38.3335H35C35 36.2252 33.275 34.5002 31.1667 34.5002C29.0583 34.5002 27.3333 36.2252 27.3333 38.3335H19.6667C19.6667 36.2252 17.9417 34.5002 15.8333 34.5002C13.725 34.5002 12 36.2252 12 38.3335H10.0833C6.90167 38.3335 4.33333 35.7652 4.33333 32.5835V26.8335H25.4167C27.525 26.8335 29.25 25.1085 29.25 23.0002V9.5835H32.7767C34.1567 9.5835 35.4217 10.331 36.1117 11.5193L39.3891 17.2502H36.9167C35.8625 17.2502 35 18.1127 35 19.1668V24.9168C35 25.971 35.8625 26.8335 36.9167 26.8335H42.6667Z" stroke="currentColor" stroke-width="3" stroke-linecap="round" stroke-linejoin="round"/>
<path d="M15.8333 42.1667C17.9504 42.1667 19.6667 40.4504 19.6667 38.3333C19.6667 36.2162 17.9504 34.5 15.8333 34.5C13.7162 34.5 12 36.2162 12 38.3333C12 40.4504 13.7162 42.1667 15.8333 42.1667Z" stroke="currentColor" stroke-width="3" stroke-linecap="round" stroke-linejoin="round"/>
<path d="M31.1667 42.1667C33.2838 42.1667 35 40.4504 35 38.3333C35 36.2162 33.2838 34.5 31.1667 34.5C29.0496 34.5 27.3333 36.2162 27.3333 38.3333C27.3333 40.4504 29.0496 42.1667 31.1667 42.1667Z" stroke="currentColor" stroke-width="3" stroke-linecap="round" stroke-linejoin="round"/>
<path d="M42.6667 23V26.8333H36.9167C35.8625 26.8333 35 25.9708 35 24.9167V19.1667C35 18.1125 35.8625 17.25 36.9167 17.25H39.3891L42.6667 23Z" stroke="currentColor" stroke-width="3" stroke-linecap="round" stroke-linejoin="round"/>
<path d="M17.75 9.58317C17.75 11.8832 16.7342 13.934 15.1434 15.3332C13.7825 16.5215 12.0192 17.2498 10.0833 17.2498C5.8475 17.2498 2.41667 13.819 2.41667 9.58317C2.41667 7.16817 3.52833 5.00235 5.29167 3.60318C6.61417 2.54901 8.28167 1.9165 10.0833 1.9165C14.3192 1.9165 17.75 5.34734 17.75 9.58317Z" stroke="currentColor" stroke-width="3" stroke-miterlimit="10" stroke-linecap="round" stroke-linejoin="round"/>
<path d="M10.5625 7.1875V10.0625L8.16667 11.5" stroke="currentColor" stroke-width="3" stroke-miterlimit="10" stroke-linecap="round" stroke-linejoin="round"/>
</svg>
