<svg width="20" height="21" viewBox="0 0 20 21" fill="none" xmlns="http://www.w3.org/2000/svg">
<path d="M15.1161 18.5166C14.3828 18.7333 13.5161 18.8333 12.4995 18.8333H7.49948C6.48281 18.8333 5.61615 18.7333 4.88281 18.5166C5.06615 16.35 7.29115 14.6416 9.99948 14.6416C12.7078 14.6416 14.9328 16.35 15.1161 18.5166Z" stroke="currentColor" stroke-width="1.5" stroke-linecap="round" stroke-linejoin="round"/>
<path d="M12.4993 2.16699H7.49935C3.33268 2.16699 1.66602 3.83366 1.66602 8.00033V13.0003C1.66602 16.1503 2.61602 17.8753 4.88268 18.517C5.06602 16.3503 7.29102 14.642 9.99935 14.642C12.7077 14.642 14.9327 16.3503 15.116 18.517C17.3827 17.8753 18.3327 16.1503 18.3327 13.0003V8.00033C18.3327 3.83366 16.666 2.16699 12.4993 2.16699ZM9.99935 12.3086C8.34935 12.3086 7.01601 10.967 7.01601 9.31701C7.01601 7.66701 8.34935 6.33366 9.99935 6.33366C11.6493 6.33366 12.9827 7.66701 12.9827 9.31701C12.9827 10.967 11.6493 12.3086 9.99935 12.3086Z" stroke="currentColor" stroke-width="1.5" stroke-linecap="round" stroke-linejoin="round"/>
<path d="M12.9842 9.31636C12.9842 10.9664 11.6509 12.308 10.0009 12.308C8.35091 12.308 7.01758 10.9664 7.01758 9.31636C7.01758 7.66636 8.35091 6.33301 10.0009 6.33301C11.6509 6.33301 12.9842 7.66636 12.9842 9.31636Z" stroke="currentColor" stroke-width="1.5" stroke-linecap="round" stroke-linejoin="round"/>
</svg>
